<?xml version="1.0" encoding="utf-8"?>
<!-- Generator: Adobe Illustrator 22.0.1, SVG Export Plug-In . SVG Version: 6.00 Build 0)  -->
<svg version="1.1" id="Layer_1" xmlns="http://www.w3.org/2000/svg" xmlns:xlink="http://www.w3.org/1999/xlink" x="0px" y="0px"
	 viewBox="0 0 512 401" style="enable-background:new 0 0 512 401;" xml:space="preserve">
<style type="text/css">
	.st0{fill:url(#SVGID_1_);}
	.st1{fill:url(#SVGID_2_);}
	.st2{fill:url(#SVGID_3_);}
	.st3{fill:url(#SVGID_4_);}
	.st4{fill:url(#SVGID_5_);}
	.st5{fill:url(#SVGID_6_);}
	.st6{fill:url(#SVGID_7_);}
	.st7{fill:url(#SVGID_8_);}
	.st8{fill:url(#SVGID_9_);}
	.st9{fill:url(#SVGID_10_);}
	.st10{fill:url(#SVGID_11_);}
	.st11{fill:url(#SVGID_12_);}
	.st12{fill:#291200;}
	.st13{fill:url(#SVGID_13_);}
	.st14{fill:url(#SVGID_14_);}
	.st15{fill:url(#SVGID_15_);}
	.st16{fill:#FFFFFF;}
	.st17{fill:url(#SVGID_16_);}
	.st18{fill:url(#SVGID_17_);}
	.st19{fill:url(#SVGID_18_);}
	.st20{fill:#EEECEB;}
	.st21{fill:#CAC4BF;}
	.st22{fill:url(#SVGID_19_);}
	.st23{fill:#824A05;}
	.st24{fill:#592905;}
	.st25{fill:url(#SVGID_20_);}
	.st26{fill:#B88A40;}
	.st27{fill:#A1661C;}
	.st28{fill:#301405;}
</style>
<g>
	<g>
		<linearGradient id="SVGID_1_" gradientUnits="userSpaceOnUse" x1="256" y1="104.5985" x2="256" y2="394.1906">
			<stop  offset="0.4569" style="stop-color:#291200"/>
			<stop  offset="1" style="stop-color:#3C2717"/>
		</linearGradient>
		<path class="st0" d="M512,252.8C512,334.7,397.4,401,256,401C114.6,401,0,334.7,0,252.8c0-81.9,114.6-148.2,256-148.2
			C397.4,104.6,512,170.9,512,252.8z"/>
		<linearGradient id="SVGID_2_" gradientUnits="userSpaceOnUse" x1="256" y1="104.5985" x2="256" y2="385.9734">
			<stop  offset="0.1168" style="stop-color:#473324"/>
			<stop  offset="0.5939" style="stop-color:#FFFFFF"/>
		</linearGradient>
		<ellipse class="st1" cx="256" cy="248.6" rx="256" ry="144"/>
		<linearGradient id="SVGID_3_" gradientUnits="userSpaceOnUse" x1="417.756" y1="97.3263" x2="138.4656" y2="347.7864">
			<stop  offset="0.2335" style="stop-color:#A59B94"/>
			<stop  offset="0.7208" style="stop-color:#E1DEDB"/>
		</linearGradient>
		<path class="st2" d="M498.4,242.4c0,76.1-108.5,137.8-242.4,137.8c-133.9,0-242.4-61.7-242.4-137.8
			c0-76.1,108.5-137.8,242.4-137.8C389.9,104.6,498.4,166.3,498.4,242.4z"/>
		<linearGradient id="SVGID_4_" gradientUnits="userSpaceOnUse" x1="453.1641" y1="229.5236" x2="404.4033" y2="367.4654">
			<stop  offset="5.076140e-03" style="stop-color:#85786E"/>
			<stop  offset="0.736" style="stop-color:#897D73"/>
		</linearGradient>
		<path class="st3" d="M498.4,242.4c0-7.6-1.1-15.1-3.2-22.4c-4.5-17.4-14.8-28.6-14.8-28.6c-11.6,24-42.3,29.7-42.3,29.7
			l-16.5,72.9l-71.3,72.1c0,0,4.6,0.1,11.4,0.3C442.6,344.1,498.4,297,498.4,242.4z"/>
		<linearGradient id="SVGID_5_" gradientUnits="userSpaceOnUse" x1="47.7602" y1="205.7162" x2="106.2326" y2="350.6967">
			<stop  offset="0.2335" style="stop-color:#8B7F75"/>
			<stop  offset="0.736" style="stop-color:#EAE7E6"/>
		</linearGradient>
		<path class="st4" d="M64.1,238c-33,4.8-37.8-39.6-37.8-39.7c-8.2,13.8-12.7,28.6-12.7,44.1c0,58.1,63.2,107.7,152.6,128
			c1.1-2.5,1.3-5,1.3-5s-60.7-36-67.9-39.6C92.3,322.1,64.1,238,64.1,238z"/>
		<linearGradient id="SVGID_6_" gradientUnits="userSpaceOnUse" x1="434.3721" y1="194.9282" x2="513.6475" y2="267.6438">
			<stop  offset="0.132" style="stop-color:#493626"/>
			<stop  offset="0.9898" style="stop-color:#85786E"/>
		</linearGradient>
		<path class="st5" d="M456.9,264.6c0,0,34.2-2,41.4-25.7c0,0-4.3-36.5-21.4-53.9l-51.2,23.7L456.9,264.6z"/>
		<linearGradient id="SVGID_7_" gradientUnits="userSpaceOnUse" x1="439.4942" y1="271.6258" x2="68.3141" y2="271.6258">
			<stop  offset="5.076140e-03" style="stop-color:#A39991"/>
			<stop  offset="0.5076" style="stop-color:#FFFFFF"/>
		</linearGradient>
		<path class="st6" d="M457.5,271.6c0,61.1-90.2,110.6-201.5,110.6c-111.3,0-201.5-49.5-201.5-110.6c0-61.1,90.2-110.6,201.5-110.6
			C367.3,161.1,457.5,210.6,457.5,271.6z"/>
		<linearGradient id="SVGID_8_" gradientUnits="userSpaceOnUse" x1="362.8428" y1="242.661" x2="480.9139" y2="334.7166">
			<stop  offset="0" style="stop-color:#453121"/>
			<stop  offset="1" style="stop-color:#897D73"/>
		</linearGradient>
		<path class="st7" d="M437.8,214.1l-67.1,21.7l-34.5,73c0,0,124.3-14,76.3,32.3c0,0,2.6-1.4,5.2-3.5c25.1-18.4,40.4-41.3,39.9-66
			C457.2,253.3,450.8,232.5,437.8,214.1z"/>
		<linearGradient id="SVGID_9_" gradientUnits="userSpaceOnUse" x1="391.324" y1="213.0052" x2="484.1205" y2="285.3552">
			<stop  offset="0.132" style="stop-color:#36200F"/>
			<stop  offset="0.9898" style="stop-color:#706054"/>
		</linearGradient>
		<path class="st8" d="M399.9,259c0,0,37-11,57.4,5.6c0,0-5-38.5-25.5-59.5l-46.7,18.4L399.9,259z"/>
		<linearGradient id="SVGID_10_" gradientUnits="userSpaceOnUse" x1="112.7635" y1="265.1225" x2="384.2379" y2="265.1225">
			<stop  offset="0.2792" style="stop-color:#ACA39C"/>
			<stop  offset="1" style="stop-color:#291200"/>
		</linearGradient>
		<path class="st9" d="M407,265.1c0,47.2-67.6,85.4-151,85.4c-83.4,0-151-38.2-151-85.4c0-47.2,67.6-85.4,151-85.4
			C339.4,179.7,407,217.9,407,265.1z"/>
		<linearGradient id="SVGID_11_" gradientUnits="userSpaceOnUse" x1="343.2351" y1="197.6817" x2="198.6574" y2="313.6935">
			<stop  offset="0.2335" style="stop-color:#7F7166"/>
			<stop  offset="0.7208" style="stop-color:#E1DEDB"/>
		</linearGradient>
		<path class="st10" d="M393.2,267.7c0,45.6-61.4,82.6-137.2,82.6c-75.8,0-137.2-37-137.2-82.6c0-45.6,61.4-82.6,137.2-82.6
			C331.8,185,393.2,222,393.2,267.7z"/>
		<linearGradient id="SVGID_12_" gradientUnits="userSpaceOnUse" x1="362.2545" y1="254.9377" x2="410.0219" y2="292.1801">
			<stop  offset="0.132" style="stop-color:#36200F"/>
			<stop  offset="0.9898" style="stop-color:#85786E"/>
		</linearGradient>
		<path class="st11" d="M381.9,232.6l-16.2,19.2l-13.5,33c0,0,17.3-8.7,26.9-2.4c9.1,6,5.5,13.8,5.5,13.8s0.2-0.2,0.5-0.6
			c5.2-8.7,8.1-18.2,8.1-28C393.2,257.8,389.7,241.6,381.9,232.6z"/>
		<path class="st12" d="M377.1,234.4c0,46.6-54.2,84.4-121.1,84.4c-66.9,0-121.1-37.8-121.1-84.4c0-46.6,54.2-84.4,121.1-84.4
			C322.9,150,377.1,187.7,377.1,234.4z"/>
		
			<radialGradient id="SVGID_13_" cx="364.4907" cy="159.9835" r="58.9742" gradientTransform="matrix(1.6287 -5.198661e-02 4.643329e-02 1.7352 -189.8105 -151.566)" gradientUnits="userSpaceOnUse">
			<stop  offset="9.644670e-02" style="stop-color:#453121"/>
			<stop  offset="1" style="stop-color:#E5E3E0"/>
		</radialGradient>
		<path class="st13" d="M411.8,101.4c0,0,35.1-26,69.3-4.2c34.1,21.8,23.4,87.2-34.9,106.8c-58.3,19.5-70.1,30.4-70.1,30.4
			l20.8-48.3c0,0,59.1-10.5,74.3-34.3c15.2-23.8-7.1-41.6-26.1-30.9c-18.9,10.6-18.6,37.5-42.8,33.9L411.8,101.4z"/>
		
			<radialGradient id="SVGID_14_" cx="335.6266" cy="211.9802" r="61.3986" gradientTransform="matrix(1.6287 3.809082e-02 -3.812417e-02 1.7353 -153.0202 -168.4039)" gradientUnits="userSpaceOnUse">
			<stop  offset="5.076140e-03" style="stop-color:#3C2717"/>
			<stop  offset="0.2284" style="stop-color:#615042"/>
			<stop  offset="1" style="stop-color:#897D73"/>
		</radialGradient>
		<path class="st14" d="M410.3,202.2c27.8-11.4,52.3-23.1,61.6-43.2c8.2-17.6,5.7-26.8,2.1-31.5c3.3,6.2,3.2,14.7-2.9,24.2
			C456,175.5,396.9,186,396.9,186l-13.4,43.7C387.5,224.7,398.2,207.2,410.3,202.2z"/>
		
			<radialGradient id="SVGID_15_" cx="366.0723" cy="156.169" r="45.5934" gradientTransform="matrix(1.6287 -5.198661e-02 4.643329e-02 1.7352 -189.8105 -151.566)" gradientUnits="userSpaceOnUse">
			<stop  offset="0" style="stop-color:#564436"/>
			<stop  offset="0.8325" style="stop-color:#FFFFFF"/>
		</radialGradient>
		<path class="st15" d="M481,97.2c-24.8-15.8-50-6.5-62-0.2c-0.6,3.2-2.7,14.2-2.1,19.7c0.7,6.4,11.5-1.3,21.8-6.1
			c10.3-4.8,41-11.8,51.5,22.2c8.6,27.7-12.5,54.6-36.9,68.5C505.3,179,513.7,118.1,481,97.2z"/>
		<path class="st16" d="M398,42.4L257,26.6v-0.2l-1.1,0.1l-1.1-0.1v0.2l-141,15.9c0,0-24.9,18.4-20.5,64.6
			c5.3,55.9,25,137.2,76.8,177.6h0.1c20.4,16.3,51.2,26.8,85.7,26.8c34.5,0,65.3-10.4,85.7-26.8h0c51.8-40.3,71.5-121.7,76.8-177.6
			C422.9,60.8,398,42.4,398,42.4z"/>
		
			<radialGradient id="SVGID_16_" cx="250.8288" cy="221.9638" r="77.0958" gradientTransform="matrix(1.6002 0 0 1.6804 -143.1858 -162.0805)" gradientUnits="userSpaceOnUse">
			<stop  offset="0.1624" style="stop-color:#948980"/>
			<stop  offset="0.8325" style="stop-color:#FFFFFF"/>
		</radialGradient>
		<path class="st17" d="M391.1,42.4L257,26.6v-0.2l-1,0.1l-1-0.1v0.2L120.8,42.4c0,0-23.7,18.4-19.5,64.6
			c5,55.9,23.8,137.2,73.1,177.6h0.1c19.4,16.3,48.7,26.8,81.6,26.8c32.8,0,62.2-10.4,81.6-26.8h0c49.3-40.3,68.1-121.7,73.1-177.6
			C414.8,60.8,391.1,42.4,391.1,42.4z"/>
		
			<radialGradient id="SVGID_17_" cx="240.4519" cy="209.7939" r="72.0482" gradientTransform="matrix(1.6815 0 0 1.6804 -146.1291 -162.0805)" gradientUnits="userSpaceOnUse">
			<stop  offset="5.076140e-03" style="stop-color:#948980"/>
			<stop  offset="0.8325" style="stop-color:#FFFFFF"/>
		</radialGradient>
		<path class="st18" d="M391.1,42.4L257,26.6v-0.2l-1,0.1l-1-0.1v0.2L120.8,42.4c0,0-23.7,18.4-19.5,64.6c2.1,23.8,6.8,52.2,15.2,80
			c12.1,25.9,28.6,49.4,50.6,66h0.1c21.1,16.3,53.1,26.7,88.8,26.7c35.7,0,67.7-10.4,88.8-26.7h0c22.1-16.6,38.5-40.1,50.6-66
			c8.4-27.9,13-56.2,15.2-80C414.8,60.8,391.1,42.4,391.1,42.4z"/>
		
			<radialGradient id="SVGID_18_" cx="249.4242" cy="221.9629" r="103.3134" gradientTransform="matrix(1.6002 0 0 1.6804 -143.1858 -162.0805)" gradientUnits="userSpaceOnUse">
			<stop  offset="1.522840e-02" style="stop-color:#85786E"/>
			<stop  offset="1" style="stop-color:#EEECEB"/>
		</radialGradient>
		<path class="st19" d="M391.1,42.4L257,26.6v-0.2l-1,0.1l-1-0.1v0.2L120.8,42.4c0,0-23.7,18.4-19.5,64.6
			c1.6,17.6,4.5,37.7,9.4,58.3c8.3,7.1,17.5,13.6,27.5,19.3h0.2c28,16.3,70.4,26.7,117.8,26.7c47.4,0,89.7-10.4,117.8-26.7h0.1
			c10-5.7,19.1-12.2,27.5-19.3c4.8-20.6,7.8-40.7,9.4-58.3C414.8,60.8,391.1,42.4,391.1,42.4z"/>
		<path class="st16" d="M412.8,73.7c0,40.7-70.2,73.7-156.8,73.7c-86.6,0-156.8-33-156.8-73.7C99.2,33,169.4,0,256,0
			C342.6,0,412.8,33,412.8,73.7z"/>
		<path class="st16" d="M415.8,77.6c0,42.9-56.6,77.6-159.8,77.6c-104.3,0-159.8-34.7-159.8-77.6C96.2,34.7,167.7,0,256,0
			C344.3,0,415.8,34.7,415.8,77.6z"/>
		<path class="st20" d="M406.2,75.3c0,39-53.2,70.7-150.2,70.7c-98,0-150.2-31.6-150.2-70.7c0-39,67.2-70.7,150.2-70.7
			C339,4.6,406.2,36.2,406.2,75.3z"/>
		<path class="st21" d="M404.2,72.7c0,37.6-52.5,68.1-148.2,68.1c-96.7,0-148.2-30.5-148.2-68.1c0-37.6,66.4-68.1,148.2-68.1
			C337.9,4.6,404.2,35.1,404.2,72.7z"/>
		
			<radialGradient id="SVGID_19_" cx="336.6477" cy="125.9375" r="124.3658" gradientTransform="matrix(1.6107 0 0 1.6804 -143.6416 -162.0805)" gradientUnits="userSpaceOnUse">
			<stop  offset="0" style="stop-color:#291200"/>
			<stop  offset="1" style="stop-color:#BBB3AD"/>
		</radialGradient>
		<path class="st22" d="M401.1,72.6c0,36.2-65,65.5-145.1,65.5c-80.2,0-145.1-29.3-145.1-65.5C110.9,36.4,175.8,7,256,7
			C336.2,7,401.1,36.4,401.1,72.6z"/>
		<ellipse class="st23" cx="256" cy="87.1" rx="129.6" ry="51"/>
		<g>
			<path class="st24" d="M346.6,60.2c-4-0.2-8.7,1.4-14.7,3.2c-1.6,0.5-3.3,1-5,1.5c-7.5,2.1-16.5,4.3-26.9,4.3
				c-2,0-10.3,2.4-12.3,2.2c-5.2-0.4-1.8-5.2-5.3-8.1c-4.3-3.6-9.7-8-19.8-8c-9.4,0-21.6,4.3-31.4,3.9c-9.9-0.4-18.2-5.4-27.7-5.4
				c-18.7,0-30.7,3.7-39.7,6.9c-21.9,7.8-20.5,29.8-19.5,39c1.3,11.8,10.5,20.2,34.4,28c3.6,1.2,7.5,2.3,11.5,3.3
				c19.3,4.5,41.8,7.1,65.9,7.1c19.3,0,37.5-1.7,54-4.6c22-6.8,32.6-19.9,32.6-39.8c0-2.3,26.6-9.1,29.5-12.6
				C377.4,74.6,362.8,61,346.6,60.2z"/>
		</g>
		<linearGradient id="SVGID_20_" gradientUnits="userSpaceOnUse" x1="243.9477" y1="136.2631" x2="243.9477" y2="38.4418">
			<stop  offset="0" style="stop-color:#301405"/>
			<stop  offset="1" style="stop-color:#000000"/>
		</linearGradient>
		<path class="st25" d="M284.3,75.8c26.5,2.5,45.6-12.8,52.1-7.6c8,6.3-11.3,19.8-11.3,28.5c0,21-10.3,41.5-69,41.5
			s-106.4-17-106.4-38c0-9.9,0.2-28.3,17.5-35.1c19.5-7.6,57.8-2.9,89-2.9C270.6,62.2,271.4,74.6,284.3,75.8z"/>
		<path class="st26" d="M204.5,45.7c0,0,16.8,3.6,21.1,5.6c4.3,2,12.5-1.3,21.1-3.9c8.6-2.6,27.3-3,35.2,0.3
			c7.9,3.3,2.3,9.2,11.8,10.9c9.5,1.6,17.8-6.9,28.3-6.9c10.5,0,23,2,23,2S277.2,27.6,204.5,45.7z"/>
		<path class="st26" d="M192.8,46.5c0,0-17.9,2.6-30.1,8.7c0,0,13.2-3,19.1-3c5.9,0,11.5-0.8,13.8-2.1c2.3-1.3,1.2-2.8,2.1-3.8
			C198.7,45.4,192.8,46.5,192.8,46.5z"/>
		<path class="st27" d="M379.4,77.2c0,0,4.4,11.2-3.7,22.8c-8.1,11.6-35.1,23.7-35.1,23.7s6.4-7.9,7.7-12.5
			c1.3-4.6,3.2-12.6,5.6-15.9c2.1-3,7.1-4.4,10.2-0.3c3.1,4.2,3.7,1.1,5.3-4.6C370.9,84.6,376.4,91.4,379.4,77.2z"/>
		<path class="st23" d="M348.1,72.2c-1.7-1.3,1.5-5.1-4.6-7.3c0,0,11.1-0.8,18.1,4.6c4.8,3.7,3.9,11-10.2,14.1c0,0,9.4-3.5,7.2-7.5
			C357,73.3,352.3,75.4,348.1,72.2z"/>
		<path class="st27" d="M151.2,62.6c0,0-10.4,6.7-14,18.4c-3.6,11.7,5.8,26.5,5.8,26.5s-15.2-8.5-11.5-24.8
			C134.7,68.2,151.2,62.6,151.2,62.6z"/>
		<path d="M331.1,56.1c0,1.9-3.2,3.5-7.2,3.5c-4,0-7.2-1.5-7.2-3.5c0-1.9,3.2-3.4,7.2-3.4C327.9,52.7,331.1,54.2,331.1,56.1z"/>
		<path class="st16" d="M328,57.3c0,0.6-1.8,1.1-4.1,1.1c-2.2,0-4.1-0.5-4.1-1.1c0-0.6,1.8-1.1,4.1-1.1
			C326.1,56.2,328,56.7,328,57.3z"/>
		<g>
			<path d="M301.4,61.9c0,1.5-2.5,2.7-5.7,2.7c-3.1,0-5.7-1.2-5.7-2.7c0-1.5,2.5-2.7,5.7-2.7C298.8,59.2,301.4,60.4,301.4,61.9z"/>
			<path class="st16" d="M300,62.7c0,0.6-1.8,1.1-4.1,1.1c-2.2,0-4.1-0.5-4.1-1.1c0-0.6,1.8-1.1,4.1-1.1
				C298.2,61.6,300,62.1,300,62.7z"/>
		</g>
		<g>
			<path d="M218.7,60.2c0,1.5-2.5,2.7-5.7,2.7c-3.1,0-5.7-1.2-5.7-2.7c0-1.5,2.5-2.7,5.7-2.7C216.1,57.4,218.7,58.7,218.7,60.2z"/>
			<path class="st16" d="M217.3,60.9c0,0.6-1.8,1.1-4.1,1.1c-2.2,0-4.1-0.5-4.1-1.1c0-0.6,1.8-1.1,4.1-1.1
				C215.5,59.8,217.3,60.3,217.3,60.9z"/>
		</g>
		<path d="M291.2,52.9c0,0.7-1.1,1.2-2.5,1.2c-1.4,0-2.5-0.5-2.5-1.2c0-0.7,1.1-1.2,2.5-1.2C290,51.6,291.2,52.2,291.2,52.9z"/>
		<path d="M258.4,51c0,1.1-1.9,2-4.1,2c-2.3,0-4.1-0.9-4.1-2c0-1.1,1.9-2,4.1-2C256.6,49,258.4,49.9,258.4,51z"/>
		<path class="st28" d="M147.7,84.8c0,1.1-1.9,2-4.1,2c-2.3,0-4.1-0.9-4.1-2c0-1.1,1.9-2,4.1-2C145.9,82.9,147.7,83.7,147.7,84.8z"
			/>
		<path class="st28" d="M210.6,46c0,0.5-0.8,0.9-1.8,0.9c-1,0-1.8-0.4-1.8-0.9c0-0.5,0.8-0.9,1.8-0.9
			C209.8,45.2,210.6,45.6,210.6,46z"/>
		<path class="st28" d="M266.5,60.8c0,0.5-0.8,0.9-1.8,0.9c-1,0-1.8-0.4-1.8-0.9c0-0.5,0.8-0.9,1.8-0.9
			C265.7,60,266.5,60.4,266.5,60.8z"/>
		<path class="st28" d="M150.7,78.3c0,0.6-1,1-2.2,1c-1.2,0-2.2-0.5-2.2-1c0-0.6,1-1,2.2-1C149.7,77.2,150.7,77.7,150.7,78.3z"/>
		<path d="M229,57.8c0,1.1-1.9,2-4.1,2c-2.3,0-4.1-0.9-4.1-2c0-1.1,1.9-2,4.1-2C227.2,55.8,229,56.7,229,57.8z"/>
		<path d="M288.7,70.9c0,1.1-1.9,2-4.1,2c-2.3,0-4.1-0.9-4.1-2c0-1.1,1.9-2,4.1-2C286.8,68.9,288.7,69.8,288.7,70.9z"/>
		<path d="M299.9,47.9c0,0.6-1,1-2.2,1c-1.2,0-2.2-0.5-2.2-1c0-0.6,1-1,2.2-1C298.9,46.9,299.9,47.3,299.9,47.9z"/>
		<path d="M337.1,66.6c0,0.6-1,1-2.2,1c-1.2,0-2.2-0.5-2.2-1c0-0.6,1-1,2.2-1C336.1,65.6,337.1,66.1,337.1,66.6z"/>
		<path d="M328.4,67.6c0,1.5-2.6,2.8-5.8,2.8c-3.2,0-5.8-1.2-5.8-2.8c0-1.5,2.6-2.8,5.8-2.8C325.8,64.8,328.4,66.1,328.4,67.6z"/>
		<path d="M333.3,94.5c0,1-1.7,1.8-3.9,1.8c-2.1,0-3.9-0.8-3.9-1.8c0-1,1.7-1.8,3.9-1.8C331.5,92.6,333.3,93.5,333.3,94.5z"/>
		<path d="M344.2,76.7c0,0.6-1,1.1-2.3,1.1c-1.3,0-2.3-0.5-2.3-1.1c0-0.6,1-1.1,2.3-1.1C343.2,75.6,344.2,76.1,344.2,76.7z"/>
		<path d="M303.7,55.5c0,1-1.6,1.7-3.6,1.7c-2,0-3.6-0.8-3.6-1.7c0-1,1.6-1.7,3.6-1.7C302,53.7,303.7,54.5,303.7,55.5z"/>
		<path d="M306.9,61.7c0,0.7-1.1,1.2-2.6,1.2c-1.4,0-2.6-0.5-2.6-1.2c0-0.7,1.1-1.2,2.6-1.2C305.8,60.4,306.9,61,306.9,61.7z"/>
		<path d="M276.5,50c0,0.3-0.6,0.6-1.2,0.6c-0.7,0-1.2-0.3-1.2-0.6c0-0.3,0.6-0.6,1.2-0.6C276,49.4,276.5,49.7,276.5,50z"/>
		<path d="M284.2,58c0,0.3-0.6,0.6-1.2,0.6c-0.7,0-1.2-0.3-1.2-0.6c0-0.3,0.6-0.6,1.2-0.6C283.6,57.5,284.2,57.7,284.2,58z"/>
		<path d="M278.9,54.3c0,0.3-0.6,0.6-1.2,0.6c-0.7,0-1.2-0.3-1.2-0.6c0-0.3,0.6-0.6,1.2-0.6C278.3,53.7,278.9,53.9,278.9,54.3z"/>
		<path d="M320.4,54.1c0,1.2-2.1,2.2-4.7,2.2c-2.6,0-4.7-1-4.7-2.2c0-1.2,2.1-2.2,4.7-2.2C318.3,51.9,320.4,52.9,320.4,54.1z"/>
		<path d="M368.9,74.9c0,1.2-2.1,2.2-4.7,2.2c-2.6,0-4.7-1-4.7-2.2c0-1.2,2.1-2.2,4.7-2.2C366.8,72.7,368.9,73.7,368.9,74.9z"/>
		<path d="M351.4,65.7c0,1.8-3,3.2-6.8,3.2c-3.7,0-6.8-1.5-6.8-3.2c0-1.8,3-3.2,6.8-3.2C348.4,62.4,351.4,63.9,351.4,65.7z"/>
		<path class="st24" d="M271.2,43.8c0,1.2-2.1,2.2-4.7,2.2c-2.6,0-4.7-1-4.7-2.2c0-1.2,2.1-2.2,4.7-2.2
			C269.2,41.6,271.2,42.6,271.2,43.8z"/>
		<path class="st24" d="M307.7,68.6c0,1.2-2.1,2.2-4.7,2.2c-2.6,0-4.7-1-4.7-2.2c0-1.2,2.1-2.2,4.7-2.2
			C305.6,66.3,307.7,67.3,307.7,68.6z"/>
		<path class="st26" d="M346.8,58.5c0,1.2-2.1,2.2-4.7,2.2s-4.7-1-4.7-2.2c0-1.2,2.1-2.2,4.7-2.2S346.8,57.3,346.8,58.5z"/>
		<path class="st26" d="M313.7,61.6c0,0.8-1.4,1.5-3.2,1.5c-1.7,0-3.2-0.7-3.2-1.5c0-0.8,1.4-1.5,3.2-1.5
			C312.3,60.1,313.7,60.8,313.7,61.6z"/>
		<path class="st26" d="M264.3,51.3c0,0.5-0.9,1-2.1,1c-1.1,0-2.1-0.4-2.1-1c0-0.5,0.9-1,2.1-1C263.4,50.3,264.3,50.8,264.3,51.3z"
			/>
		<path class="st24" d="M291.4,46.4c0,2-3.3,3.6-7.4,3.6c-4.1,0-7.4-1.6-7.4-3.6c0-2,3.3-3.6,7.4-3.6
			C288.1,42.9,291.4,44.5,291.4,46.4z"/>
		<path class="st24" d="M207.5,47.7c0,1.4-2.3,2.5-5.1,2.5c-2.8,0-5.1-1.1-5.1-2.5c0-1.4,2.3-2.4,5.1-2.4
			C205.2,45.3,207.5,46.4,207.5,47.7z"/>
		<path class="st24" d="M164.1,59.3c0,0.9-1.6,1.7-3.5,1.7c-1.9,0-3.5-0.7-3.5-1.7c0-0.9,1.6-1.7,3.5-1.7
			C162.5,57.6,164.1,58.3,164.1,59.3z"/>
		<path class="st24" d="M358.3,60.2c0,0.9-1.6,1.7-3.5,1.7c-1.9,0-3.5-0.7-3.5-1.7c0-0.9,1.6-1.7,3.5-1.7
			C356.8,58.5,358.3,59.2,358.3,60.2z"/>
		<path class="st24" d="M171.4,56.2c0,0.6-1,1.1-2.2,1.1s-2.2-0.5-2.2-1.1c0-0.6,1-1.1,2.2-1.1S171.4,55.7,171.4,56.2z"/>
		<path class="st16" d="M302.5,55.8c0,0.3-1,0.6-2.3,0.6c-1.3,0-2.3-0.3-2.3-0.6s1-0.6,2.3-0.6C301.4,55.2,302.5,55.5,302.5,55.8z"
			/>
		<g>
			<path d="M274.9,54c0,0.9-1.6,1.7-3.5,1.7c-2,0-3.5-0.8-3.5-1.7c0-0.9,1.6-1.7,3.5-1.7C273.3,52.3,274.9,53,274.9,54z"/>
			<path class="st16" d="M272.9,54.2c0,0.3-0.8,0.5-1.8,0.5c-1,0-1.8-0.2-1.8-0.5c0-0.3,0.8-0.5,1.8-0.5
				C272.1,53.7,272.9,54,272.9,54.2z"/>
		</g>
		<g>
			<path d="M343.2,88.7c0,2.1-2.8,3.9-6.2,3.9c-3.4,0-6.2-1.7-6.2-3.9c0-2.2,2.8-3.9,6.2-3.9C340.5,84.8,343.2,86.5,343.2,88.7z"/>
			<path class="st16" d="M339.8,89.2c0,0.6-1.4,1.1-3.2,1.1c-1.8,0-3.2-0.5-3.2-1.1c0-0.6,1.4-1.1,3.2-1.1
				C338.3,88.1,339.8,88.6,339.8,89.2z"/>
		</g>
		<g>
			<path d="M235.2,52.3c0,0.6-1.1,1.1-2.4,1.1c-1.3,0-2.4-0.5-2.4-1.1c0-0.6,1.1-1.1,2.4-1.1C234.2,51.2,235.2,51.7,235.2,52.3z"/>
			<path class="st16" d="M233.9,52.5c0,0.2-0.6,0.3-1.2,0.3c-0.7,0-1.2-0.1-1.2-0.3c0-0.2,0.6-0.3,1.2-0.3
				C233.4,52.2,233.9,52.3,233.9,52.5z"/>
		</g>
		<path d="M212.1,54.2c0,0.8-1.3,1.4-2.9,1.4c-1.6,0-2.9-0.6-2.9-1.4c0-0.8,1.3-1.4,2.9-1.4C210.8,52.8,212.1,53.4,212.1,54.2z"/>
		<g>
			<path d="M195.8,55.2c0,0.4-0.7,0.8-1.7,0.8c-0.9,0-1.7-0.4-1.7-0.8c0-0.4,0.7-0.8,1.7-0.8C195.1,54.4,195.8,54.7,195.8,55.2z"/>
			<path class="st16" d="M194.9,55.3c0,0.1-0.4,0.2-0.9,0.2c-0.5,0-0.9-0.1-0.9-0.2c0-0.1,0.4-0.2,0.9-0.2
				C194.5,55,194.9,55.1,194.9,55.3z"/>
		</g>
		<g>
			<path d="M277.1,63.8c0,0.7-1,1.4-2.1,1.4c-1.2,0-2.1-0.6-2.1-1.4c0-0.8,1-1.4,2.1-1.4C276.2,62.4,277.1,63,277.1,63.8z"/>
			<path class="st16" d="M275.9,64c0,0.2-0.5,0.4-1.1,0.4s-1.1-0.2-1.1-0.4c0-0.2,0.5-0.4,1.1-0.4S275.9,63.8,275.9,64z"/>
		</g>
		<g>
			<path d="M290.8,63.2c0,0.8-1,1.4-2.1,1.4c-1.2,0-2.1-0.6-2.1-1.4c0-0.7,1-1.4,2.1-1.4C289.8,61.9,290.8,62.5,290.8,63.2z"/>
			<path class="st16" d="M289.6,63.4c0,0.2-0.5,0.4-1.1,0.4c-0.6,0-1.1-0.2-1.1-0.4c0-0.2,0.5-0.4,1.1-0.4
				C289.1,63,289.6,63.2,289.6,63.4z"/>
		</g>
		<path class="st28" d="M281.4,44.6c0,0.8-1.4,1.5-3.2,1.5c-1.8,0-3.2-0.7-3.2-1.5c0-0.9,1.4-1.5,3.2-1.5
			C280,43.1,281.4,43.8,281.4,44.6z"/>
	</g>
</g>
</svg>
