<?xml version="1.0" encoding="utf-8"?>
<!-- Generator: Adobe Illustrator 22.0.1, SVG Export Plug-In . SVG Version: 6.00 Build 0)  -->
<svg version="1.1" id="Layer_1" xmlns="http://www.w3.org/2000/svg" xmlns:xlink="http://www.w3.org/1999/xlink" x="0px" y="0px"
	 viewBox="0 0 64 50" style="enable-background:new 0 0 64 50;" xml:space="preserve">
<style type="text/css">
	.st0{fill:#FFFFFF;}
</style>
<g>
	<ellipse class="st0" cx="9.3" cy="26.9" rx="1.8" ry="1.8"/>
	<ellipse class="st0" cx="23.8" cy="17.6" rx="1.8" ry="1.8"/>
	<path class="st0" d="M56.1,42.3l7.8-20c0.1-0.2,0-0.4-0.1-0.5c-0.1-0.1-0.3-0.2-0.5-0.1c-2.4,0.8-6.3,4.5-7.7,8.7
		c-1.8-2.6-7-1.9-7.3,1.3c0,0.2,0.1,0.3,0.3,0.4c3,0.5,4.9,8.2-4.5,8.2c-5.6,0-8-5.3-7.1-9.4c0.9-4.1,4.9-7,9.8-4.9
		c0.1,0,0.2,0,0.3,0c0.1-0.1,0.2-0.1,0.2-0.2c0.6-4.5-4.8-7.5-9.3-5.1c0.4-7-2.7-16.4-5.6-20.3C32.3,0.1,32.2,0,32,0
		c-0.2,0-0.3,0.1-0.4,0.2c-2.9,3.9-6,13.3-5.6,20.3c-4.5-2.4-9.9,0.6-9.3,5.1c0,0.1,0.1,0.2,0.2,0.2c0.1,0.1,0.2,0.1,0.3,0
		c4.8-2.1,8.9,0.8,9.8,4.9c0.9,4.1-1.4,9.4-7.1,9.4c-9.4,0-7.5-7.7-4.5-8.2c0.2,0,0.3-0.2,0.3-0.4c-0.3-3.2-5.6-3.9-7.3-1.3
		c-1.4-4.2-5.3-7.9-7.7-8.7c-0.2-0.1-0.4,0-0.5,0.1S0,22.2,0,22.3l7.8,20C13.1,43.6,24.3,45,32,45C39.7,45,51,43.6,56.1,42.3z
		 M31.7,10.7c0-0.1,0.1-0.1,0.2-0.1s0.2,0,0.2,0.1c0.6,0.9,2.3,3.8,2.3,7.2c0,3.4-1.7,6.2-2.3,7.2c0,0.1-0.1,0.1-0.2,0.1
		c-0.1,0-0.2,0-0.2-0.1c-0.6-0.9-2.3-3.8-2.3-7.2C29.5,14.5,31.1,11.7,31.7,10.7z M31.4,36.3c0.1-0.2,0.3-0.3,0.5-0.3
		c0.2,0,0.4,0.1,0.5,0.3c2.2,3.4,5.7,5.9,9.8,7.2C38.7,43.8,35,44,32,44c-3.1,0-6.8-0.2-10.4-0.6C25.7,42.2,29.2,39.6,31.4,36.3z
		 M32,50c7.5,0,18.9-1.3,22-2.3l1.4-3.6C50,45.4,39.3,46.7,32,46.7c-7.3,0-17.9-1.3-23.4-2.5l-0.7-1.9l2.1,5.4
		C13.1,48.7,24.5,50,32,50z"/>
	<ellipse class="st0" cx="54.7" cy="26.9" rx="1.8" ry="1.8"/>
	<ellipse class="st0" cx="40.2" cy="17.6" rx="1.8" ry="1.8"/>
</g>
</svg>
