<svg xmlns="http://www.w3.org/2000/svg" viewBox="0 0 320.56 54.6" width="100" height="17.0326928">
  <path d="M29.25,29.07c.4.3-1.33,5.55-6,7.78C17.41,39.63,7.26,38,2.37,30S-1,6.86,17.7,1.74s32.88,2,43.32,8.45,34.43,28,48.43,34.65,26.88,5.11,31.1.89,2.77-13.53-.45-16.22a8.45,8.45,0,0,0-10-.88c-1.56,1.1-2.11-4.82,1.33-9.11,4.44-5.56,18-7,22.88,3.77,4.22,9.33,1.55,25.11-13.11,29.77C127.89,57.3,111.67,52.84,93,38.84s-31.32-26.21-44-30S26.34,9.17,22.81,16c-2.89,5.56-.08,11.9,1.77,12.89C27.92,30.63,28.36,28.4,29.25,29.07Z" />
  <path d="M291.31,29.07c-.39.3,1.34,5.55,6,7.78,5.85,2.78,16,1.11,20.88-6.89s3.34-23.1-15.33-28.22-32.87,2-43.31,8.45-34.44,28-48.43,34.65S184.24,50,180,45.73s-2.78-13.53.44-16.22a8.47,8.47,0,0,1,10-.88c1.55,1.1,2.1-4.82-1.33-9.11-4.45-5.56-18-7-22.88,3.77-4.22,9.33-1.56,25.11,13.1,29.77,13.33,4.24,29.55-.22,48.21-14.22s31.32-26.21,44-30,22.68.32,26.22,7.11c2.88,5.56.08,11.9-1.78,12.89C292.65,30.63,292.2,28.4,291.31,29.07Z" />
</svg>
